<?xml version="1.0" encoding="utf-8"?>
<!-- Generator: Adobe Illustrator 16.0.0, SVG Export Plug-In . SVG Version: 6.00 Build 0)  -->
<!DOCTYPE svg PUBLIC "-//W3C//DTD SVG 1.1//EN" "http://www.w3.org/Graphics/SVG/1.1/DTD/svg11.dtd">
<svg version="1.1" xmlns="http://www.w3.org/2000/svg" xmlns:xlink="http://www.w3.org/1999/xlink" x="0px" y="0px"
	 width="118.833px" height="61.334px" viewBox="0 0 118.833 61.334" enable-background="new 0 0 118.833 61.334"
	 xml:space="preserve">
<g id="Layer_3" display="none">
	<linearGradient id="SVGID_1_" gradientUnits="userSpaceOnUse" x1="-4.882812e-04" y1="30.7397" x2="119" y2="30.7397">
		<stop  offset="0" style="stop-color:#FFFFFF"/>
		<stop  offset="0.1405" style="stop-color:#F7F7F7"/>
		<stop  offset="0.3361" style="stop-color:#E7E8E9"/>
		<stop  offset="0.5638" style="stop-color:#CFD0D2"/>
		<stop  offset="0.8138" style="stop-color:#ADAFB1"/>
		<stop  offset="1" style="stop-color:#919396"/>
	</linearGradient>
	<rect x="0" y="-0.01" display="inline" opacity="0.6" fill="url(#SVGID_1_)" width="119" height="61.5"/>
</g>
<g id="Layer_4">
	<rect x="-1.251" y="-1.75" fill="#BCBEC0" width="121.75" height="63.75"/>
</g>
<g id="Layer_2">
	<linearGradient id="SVGID_2_" gradientUnits="userSpaceOnUse" x1="-9.765625e-04" y1="30.7505" x2="118.999" y2="30.7505">
		<stop  offset="0" style="stop-color:#E93E3A"/>
		<stop  offset="0.0639" style="stop-color:#CF3758;stop-opacity:0.9207"/>
		<stop  offset="0.1503" style="stop-color:#AF2D75;stop-opacity:0.8137"/>
		<stop  offset="0.2117" style="stop-color:#9A2887;stop-opacity:0.7375"/>
		<stop  offset="0.242" style="stop-color:#92278F;stop-opacity:0.7"/>
		<stop  offset="0.2972" style="stop-color:#7659A5;stop-opacity:0.7559"/>
		<stop  offset="0.3625" style="stop-color:#467ABD;stop-opacity:0.822"/>
		<stop  offset="0.4217" style="stop-color:#0091D2;stop-opacity:0.882"/>
		<stop  offset="0.4725" style="stop-color:#00A0E1;stop-opacity:0.9335"/>
		<stop  offset="0.5131" style="stop-color:#00A9EB;stop-opacity:0.9745"/>
		<stop  offset="0.5382" style="stop-color:#00AEEF"/>
		<stop  offset="0.5743" style="stop-color:#00AEEB;stop-opacity:0.9694"/>
		<stop  offset="0.6085" style="stop-color:#00AEE3;stop-opacity:0.9404"/>
		<stop  offset="0.642" style="stop-color:#00AFD7;stop-opacity:0.9119"/>
		<stop  offset="0.6751" style="stop-color:#00B0C7;stop-opacity:0.8839"/>
		<stop  offset="0.7078" style="stop-color:#00B1B1;stop-opacity:0.8561"/>
		<stop  offset="0.7404" style="stop-color:#00B396;stop-opacity:0.8285"/>
		<stop  offset="0.7721" style="stop-color:#27B575;stop-opacity:0.8015"/>
		<stop  offset="0.7739" style="stop-color:#2BB673;stop-opacity:0.8"/>
		<stop  offset="0.8001" style="stop-color:#3AB771;stop-opacity:0.8116"/>
		<stop  offset="0.8335" style="stop-color:#56BB6D;stop-opacity:0.8264"/>
		<stop  offset="0.8708" style="stop-color:#78C264;stop-opacity:0.8429"/>
		<stop  offset="0.9109" style="stop-color:#9FCD56;stop-opacity:0.8606"/>
		<stop  offset="0.9534" style="stop-color:#CDDC3D;stop-opacity:0.8794"/>
		<stop  offset="0.997" style="stop-color:#FFF000;stop-opacity:0.8987"/>
		<stop  offset="1" style="stop-color:#FFF200;stop-opacity:0.9"/>
	</linearGradient>
	<rect x="-0.001" y="0" opacity="0.6" fill="url(#SVGID_2_)" width="119" height="61.5"/>
</g>
<g id="Layer_1">
	<g>
		<g>
			<path fill="#FFFFFF" d="M38.309,7.558L11.78,54.596h0.46c2.305-4.06,4.422-7.8,6.336-11.195
				c4.764-8.451,11.5-20.398,20.208-35.842H38.309z"/>
			<rect x="38.374" y="7.59" fill="#FFFFFF" width="0.388" height="46.997"/>
			<path fill="#FFFFFF" d="M64.9,7.543L38.372,54.581h0.461c2.305-4.06,4.423-7.8,6.335-11.195
				c4.765-8.451,11.5-20.397,20.208-35.842H64.9z"/>
			<rect x="11.811" y="7.59" fill="#FFFFFF" width="0.387" height="46.997"/>
		</g>
		<polygon fill="#FFFFFF" points="64.892,7.549 64.948,7.603 64.948,54.584 91.381,7.56 91.2,7.56 91.2,7.549 		"/>
		<path fill="#FFFFFF" d="M28.125,26.391c0.055-0.097,0.297-0.484,0.502-0.743c0.232-0.333,0.437-0.558,0.966-1.038
			c0.303-0.274,0.829-0.56,1.195-0.754c0.371-0.196,0.749-0.345,1.146-0.454c0.391-0.11,0.79-0.167,1.183-0.167
			c0.056,0,0.155,0,0.301,0c0.138,0,0.293,0.016,0.469,0.045c0.164,0.028,0.159,0.007,0.302,0.035
			c0.137,0.029,0.24,0.033,0.539,0.087c0.508,0.109,0.975,0.305,1.396,0.576c0.425,0.273,0.777,0.605,1.06,0.989
			c0.282,0.382,0.507,0.812,0.675,1.275c0.174,0.468,0.547,1.255,0.544,2.056l0.024,0.876l0.125-0.228l-0.1-20.691L27.346,27.383
			L28.125,26.391z"/>
		<path fill="#FFFFFF" d="M90.196,33.024l-4.045,8.01l-0.541,1.003l-0.176,0.243c-0.418,0.663-0.857,1.454-1.361,2.186
			c-4.614,6.694-7.874,6.927-9.631,6.816l-1.949,3.299c1.186-0.015,2.314-0.188,3.381-0.521c1.068-0.334,2.047-0.801,2.938-1.408
			c0.889-0.599,1.688-1.324,2.399-2.171c0.706-0.847,1.347-1.785,1.924-2.812l7.429-14.645H90.196z"/>
		<path fill="#FFFFFF" d="M107.153,7.697c-1.066,0.197-2.077,0.566-3.031,1.096c-0.953,0.53-1.812,1.197-2.574,2
			c-0.763,0.797-1.419,1.721-1.964,2.772L89.501,34.547h0.312l10.006-20.73c0.498-1.007,1.125-1.911,1.89-2.713
			c0.764-0.801,1.611-1.467,2.541-2.002c0.935-0.533,1.911-0.915,2.938-1.146c1.029-0.226,2.072-0.275,3.142-0.131l0.028-0.213
			C109.29,7.469,108.225,7.495,107.153,7.697z"/>
	</g>
</g>
</svg>
