<?xml version="1.0" encoding="utf-8"?>
<!-- Generator: Adobe Illustrator 16.0.0, SVG Export Plug-In . SVG Version: 6.00 Build 0)  -->
<!DOCTYPE svg PUBLIC "-//W3C//DTD SVG 1.1//EN" "http://www.w3.org/Graphics/SVG/1.1/DTD/svg11.dtd">
<svg version="1.1" xmlns="http://www.w3.org/2000/svg" xmlns:xlink="http://www.w3.org/1999/xlink" x="0px" y="0px"
	 width="52.667px" height="86px" viewBox="0 0 52.667 86" enable-background="new 0 0 52.667 86" xml:space="preserve">
<g id="Layer_2">
	<polygon fill="#FFFFFF" points="3.675,2.238 3.775,2.332 3.775,85.242 50.421,2.255 50.104,2.255 50.104,2.238 	"/>
</g>
<g id="Layer_1">
	<path fill="#36C2D6" d="M3.772,9.899v1c0,0,5.706-1.669,5.706-8.606H8.791C8.791,2.292,9.003,8.568,3.772,9.899z"/>
	<path fill="#36C2D6" d="M3.759,16.917c0,0,1.188-1.219,5.125-2c0,0,3.469-0.094,4.281-3.844c0,0,0.906-4.812,0.281-8.812h-0.594
		c0,0,0.688,6.031-0.094,7.594c0,0-0.031,3.906-4.625,4.625c0,0-4.344,1.469-4.375,1.719V16.917z"/>
	<path fill="#36C2D6" d="M3.791,20.949c0,0,2.688-3.406,6.219-3c0,0,5.469,1.219,5.688-5.094c0,0,0.344-3.062,0.031-3.969
		l-0.125-6.625h-0.625l0.219,7.375c0,0,1.312,8.562-5.031,7.875c0,0-3.906-0.5-6.375,2.688V20.949z"/>
	<path fill="#36C2D6" d="M3.791,24.98c0,0,3-5.031,8.75-4.031c0,0,6.062,2.062,5.531-7.562c0,0-0.75-9.938-0.438-11.156h-0.656
		l0.344,11.469c0,0,0.969,8.656-5.625,6.5c0,0-4.219-1.062-7.906,3.812V24.98z"/>
	<path fill="#36C2D6" d="M3.791,24.98c0,0,2.844-5.062,8.75-4.031c0,0,5.75,2.125,5.562-7.344c0,0-0.875-10.625-0.469-11.375h-0.656
		l0.312,9.531c0,0,0.344,3.438,0.062,3.969c0,0-0.031,6.5-5.812,4.438c0,0-4.594-0.75-7.75,3.844V24.98z"/>
	<path fill="#36C2D6" d="M3.791,30.292c0,0,2.781-8.406,10.688-6.469c0,0,5.75,2.125,5.75-6.281L19.978,2.23h-0.75
		c0,0,0.594,16.656,0.125,17.844c0,0-0.562,4.938-6.062,2.969c0,0-6.375-1.5-9.531,6.125L3.791,30.292z"/>
	<path fill="#36C2D6" d="M3.791,35.792c0,0,3.438-8.906,6.312-9.562c0,0,1.844-1.25,5.406-0.125c0,0,6.812,2.625,6.938-7.312
		c0,0-0.031-8.188-0.156-9.281c0,0-0.094-7,0-7.281h-0.562l0.219,11.406c0,0,0.25,5.406,0,6.125c0,0-0.5,7.875-6.375,5.688
		c0,0-6.188-1.969-8.844,3.219c0,0-2.875,4.969-2.969,5.875L3.791,35.792z"/>
	<path fill="#36C2D6" d="M3.791,40.636c0,0,4.312-14.75,12.125-13.281c0,0,0.844,0,1.719,0.5c0,0,6.406,2.469,7-6.781
		c0,0,0.25-5.906,0.062-6.469c0,0-0.219-1.219-0.219-1.688c0,0,0.125-10.5,0.219-10.656h-0.625l-0.125,12
		c0,0,0.25,1.281,0.219,1.781c0,0,0.025,4.407-0.223,6.274c-0.026,0.201-0.057,0.373-0.09,0.507
		c-0.344,1.375-1.312,6.219-6.219,4.531c0,0-4.656-1.938-8.375,1.906c0,0-3.594,3.75-5.5,10.312L3.791,40.636z"/>
	<path fill="#36C2D6" d="M3.791,47.511c0,0,2.625-6.781,2.688-7.031c0,0,1.562-5.594,3.844-7.938c0,0,4.031-4.781,7.781-3.25
		c0,0,7.312,5.812,8.438-5.562c0,0,0.292-20.978,0.375-21.478h-0.625c0,0,0,21.459-0.25,22.167c0,0-0.792,8.958-7.542,4.666
		c0,0-3.584-3.043-9.375,4.04c0,0-2.666,4.788-3.416,7.955c0,0-0.5,1.876-2,5.584L3.791,47.511z"/>
	<path fill="#36C2D6" d="M3.791,52.998c0,0,4.333-11.793,5.625-14.001c0,0,2.542-6.207,6.75-7.791c0,0,2.083-1.333,3.583,0.875
		c0,0,3.293,3.458,7.084-1.417c0,0,2.021-1.871,1.708-11.684c0,0,0.156-16.281,0.344-16.75h-0.562c0,0,0.094,23.896-0.781,25.396
		c0,0-1.125,4.948-4.844,5.011c0,0-1.438,0.406-3.875-2.094c0,0-1.438-1.5-5.469,1.75c0,0-3.646,2.838-5.812,9.713
		c0,0-2.084,5-3.792,9.667L3.791,52.998z"/>
	<path fill="#36C2D6" d="M3.791,57.879c0,0,3.542-7.624,3.75-9.499c0,0,4.083-12.291,8.958-14.333c0,0,3.417-1.834,4.167,0
		c0,0,3.75,5.417,8.125-2.083c0,0,1.293-2.291,1.543-8.541l0.583-21.165h-0.542c0,0-0.334,19.584-0.5,21.834
		c0,0-0.708,8.082-2.333,8.915c0,0-2.667,4.25-5.792,1.375c0,0-0.541-0.25-1.083-1.375c0,0-1.083-1.334-4.458,0.583
		c0,0-3.542,1.626-6.834,8.71c0,0-2.501,5.834-3.042,7.876c0,0-1.084,4.125-2.625,6.292L3.791,57.879z"/>
	<path fill="#36C2D6" d="M3.749,62.459c0,0,0.375-1.249,0.792-1.583c0,0,0.084-0.084,0.167-0.667c0,0,0.458-1.874,0.708-1.958
		c0,0,0.959-1.75,1.167-2.625c0,0,0.917-2.998,1.25-3.206c0,0,0.499-1.291,0.666-1.833c0,0,1.001-3.333,1.334-3.708
		c0,0,1-3.375,4.125-7.125c0,0,4.457-5.708,7.166-4.333c0,0,0.854,0.715,0.917,1.059c0,0,0.125,0.234-0.094,0.156
		c0,0-1.282-0.532-2.948,0.489c0,0-5,2.002-8.083,9.585c0,0-1.79,3.998-2.624,6.04c0,0-2.251,5.958-2.459,6.625
		c0,0-0.541,1.666-1.041,2.5c0,0-0.875,1.834-1.042,2.334v1.041c0,0,1.042-2.167,1.375-2.75s3.126-8.291,3.292-8.916
		s0.166-0.625,0.166-0.625s2.416-5.334,2.625-5.417c0,0,1.501-3.957,2.709-5.249c0,0,1.916-2.583,3.166-3.375
		c0,0,2.167-1.666,2.667-1.708s1.959-0.833,2.917,0.5c0,0,0.28,0.27,0.405,0.645c0,0,0.25,0.344-0.219,0.281
		c0,0-2.75-0.719-6.125,2.656c0,0-5.312,6.406-7.344,12.531c0,0-3.593,8.926-4.468,11.426c0,0-1.042,2.5-1.167,2.75v1.5
		c0,0,2.709-6.667,3.209-8.167c0,0,1.709-4.666,2.375-5.958c0,0,3.749-8.21,4.041-8.543c0,0,3.084-5.124,4.459-5.916
		c0,0,2.706-2.226,4.373-1.934c0,0,1.104-0.188,1.542,0.75c0,0,0.396,0.48,0.375,0.834c0,0,0.292,0.499-0.208,0.416
		c0,0-2.043-1.145-5.646,2.021c0,0-4.519,3.541-7.977,12.749c0,0-3.541,8.832-4.083,10.29c0,0-0.416,1.876-0.958,2.542
		c0,0-0.875,1.959-1.5,2.75V72.5c0,0,0.667-1.499,0.875-1.666c0,0,2.124-3.875,2.291-5c0,0,1.334-3.834,1.667-4.167
		c0,0,5.458-14.164,7.375-15.331c0,0,2.667-4.002,6.375-5.043c0,0,1.862-0.313,2.112,0.437c0,0,0.188,0.297,0.219,0.641
		c0,0,0.141,0.297-0.359,0.297c0,0-3.035-0.646-7.202,4.457c0,0-4.667,7.416-5.188,9.687c0,0-2.208,5.002-2.854,6.647
		c0,0-1.792,4.48-2.146,5.376c0,0,0.042,0.624-0.708,1.354c0,0-1.271,2.335-1.479,3.605c0,0-0.438,2.083-0.625,2.583
		c0,0-0.042,0.583-0.312,0.938v0.646c0,0,0.792-1.167,0.979-2.229c0,0,0.499-1.626,0.541-2.104c0,0,0.062-0.562,0.354-0.771
		c0,0,0.084-0.229,0.042-0.479c0,0,0.792-1.957,1.188-2.229c0,0,1.812-3.479,2.146-5.146c0,0,2.958-7.667,3.541-8.479
		c0,0,0.292-0.874,0.542-1.396s-0.25,0.521-0.25,0.521s2.501-5.501,3.626-6.584c0,0,1.605-2.874,4.126-4.521
		c0,0,1.082-1.063,2.854-1.396c0,0,1.468-0.339,1.515,0.161c0,0,0.094,0.375,0.062,0.656c0,0,0.109,0.438-0.203,0.422
		c0,0-2.02-0.426-6.749,4.657c0,0-3.71,5.063-4.689,8.146c0,0-1.458,4.101-2.188,5.83c0,0-0.689,2.084-1.397,3.688
		c0,0-0.521,1.314-1.375,2.668c0,0-0.709,0.877-1.021,3.002c0,0-0.354,1.625-0.75,1.979c0,0-0.812,2.251-1.208,3.001
		c0,0-0.688,1.854-0.75,2.104c0,0-0.959,2.479-0.959,2.708v1.5c0,0,1.896-5.875,2.229-6.333c0,0,0.646-1.938,0.917-2.292
		c0,0,0.813-1.5,0.896-1.896c0,0,0.209-0.563,0.229-1.334c0,0,0.291-1.541,0.646-1.854c0,0,1.292-2.314,2.167-4.669
		c0,0,1.793-4.544,2.105-5.669c0,0,0.896-2.687,1.229-2.937c0,0,1.482-3.354,1.795-3.604c0,0,2.126-3.667,3.792-5.042
		c0,0,2.499-2.354,3.291-2.542c0,0,0.98-0.729,1.646-0.729c0,0,0.502-0.182,0.611,0.303c0,0,0.156,0.641,0.109,0.859
		c0,0,0.125,0.391-0.219,0.453c0,0-3.504,1.033-7.274,6.366c0,0-2.27,3.5-3.228,5.417c0,0-1.083,2.896-1.979,5.562
		c0,0-0.605,1.875-0.855,2.729c0,0-0.541,1.814-1.104,2.544c0,0-0.751,1.084-0.729,2.104c0,0,0.001,0.292-0.416,1.229
		c0,0-0.334,0.833-0.396,1.458c0,0-0.958,1.98-1.041,2.251c0,0-0.5,0.938-0.646,1.312c0,0-0.376,1.25-0.354,1.542v0.188l1.209-2.146
		c0,0,1.124-2.771,1.291-3.146s0.416-1.563,0.708-2.063c0,0,0.125-0.5,0.125-0.625c0,0,0.084-1.271,0.521-1.688
		c0,0,1.085-1.98,1.252-2.668c0,0,1.813-5.166,1.959-5.791c0,0,1.753-4.708,2.378-5.125c0,0,2.291-3.979,2.854-4.291
		c0,0,2.062-3.04,5.916-4.874l0.606-1.021c0,0-0.229-0.355-0.104-0.396c0,0,0.208-0.062,0.312-0.041l0.271-0.417
		c0,0-1.27-1.188-1.229-2.042c0,0-0.167-0.75,0.583-0.562c0,0,1.562,0.292,2,0.167l0.312-0.542c0,0-2.458,0.562-3.208-0.792
		c0,0-0.604-0.542-0.729-1.646c0,0-0.083-0.313,0.25-0.229c0,0,4.208,0.916,5.75-2.917c0,0,1.749-2.062,1.895-5.771
		c0,0,0.865-9.296,0.553-11.796c0,0-0.188-15.875,0.062-16.375h-0.5c0,0-0.188,19.75-0.25,20.812s0.375,9.625-2.375,13.062
		c0,0-2.519,4.543-5.978,1.543c0,0-0.708-0.625-1-1.25c0,0-1.875-3.208-4.375-1.208c0,0-4.375,1.79-7.417,8.207
		c0,0-1.748,3.705-2.082,4.789c0,0-0.875,2.751-1.333,3.793c0,0-0.873,2.169-1.29,3.169c0,0-0.333,1.375-0.875,2.083
		c0,0-0.666,1.292-0.875,2.25c0,0-0.25,1.124-0.625,1.666L3.749,62.459z"/>
	<path fill="#36C2D6" d="M12.962,68.751c0,0,3.959-11.833,5.917-13.75c0,0,3.541-4.874,4.833-5.208l-0.583,0.875
		c0,0-3.875,3.5-5.167,6.625c0,0-3.958,8.709-4.125,10L12.962,68.751z"/>
	<path fill="#36C2D6" d="M34.797,2.25c0,0-0.584,12.707-0.292,14.832c0,0,0.166,12.917,0,13.417l-0.416,0.791
		c0,0,0.209-15.708-0.125-16.916c0,0,0.25-11.792,0.375-12.125L34.797,2.25z"/>
	<path fill="#36C2D6" d="M36.214,2.249c0,0-0.375,14-0.125,15.917c0,0,0.25,8.75,0.208,9.125l0.542-0.917c0,0-0.25-11.75-0.25-13
		c0,0,0.083-10.207,0.208-11.124L36.214,2.249z"/>
	<path fill="#36C2D6" d="M38.505,2.291c0,0-0.707,18.541,0.084,21l0.333-0.625c0,0-0.458-19.625,0.292-20.375H38.505z"/>
	<path fill="#36C2D6" d="M40.672,2.291c0,0-0.916,6.334-0.833,7.834c0,0,0.167,9.583,0.25,10.458l0.5-0.833
		c0,0-0.375-9.625-0.042-11.625c0,0,0.542-5.75,0.75-5.917L40.672,2.291z"/>
	<path fill="#36C2D6" d="M42.672,2.25c0,0-1.624,10.75-1.083,15.708l0.458-0.875c0,0,0.208-12.084,1.333-14.792L42.672,2.25z"/>
	<path fill="#36C2D6" d="M44.714,2.249c0,0-1.875,9.458-1.542,12.875l0.542-1c0,0,0.374-10.374,1.666-11.916L44.714,2.249z"/>
	<path fill="#36C2D6" d="M46.964,2.333c0,0-2.083,7.584-1.875,9.375l0.75-1.375c0,0,1.333-7.751,1.833-8.084L46.964,2.333z"/>
	<path fill="#36C2D6" d="M49.339,2.291c0,0-1.043,3.291-0.959,3.583l0.917-1.666c0,0,0.499-1.959,0.708-1.959L49.339,2.291z"/>
	<path fill="#36C2D6" d="M3.749,13.877c0,0,3.293-1.624,3.834-1.666c0,0,2.959-1.043,3.625-4.334c0,0,0.833-2.749,0.583-5.666
		h-0.667c0,0,0.291,5.542-1.25,7.25c0,0-0.541,1.501-2.708,2.167c0,0-3.459,1.25-3.417,1.458V13.877z"/>
	<path fill="#36C2D6" d="M3.749,5.086c0,0,1.709-1.459,1.709-2.792l0.75-0.083c0,0-0.168,2.417-2.459,4V5.086z"/>
</g>
</svg>
