<?xml version="1.0" encoding="utf-8"?>
<!-- Generator: Adobe Illustrator 16.0.0, SVG Export Plug-In . SVG Version: 6.00 Build 0)  -->
<!DOCTYPE svg PUBLIC "-//W3C//DTD SVG 1.1//EN" "http://www.w3.org/Graphics/SVG/1.1/DTD/svg11.dtd">
<svg version="1.1" id="Layer_1" xmlns="http://www.w3.org/2000/svg" xmlns:xlink="http://www.w3.org/1999/xlink" x="0px" y="0px"
	 width="184.5px" height="90.5px" viewBox="0 0 184.5 90.5" enable-background="new 0 0 184.5 90.5" xml:space="preserve">
<g>
	<path fill="#00ACC1" d="M53.097,4.085L6.281,87.095h0.812c4.068-7.164,7.805-13.765,11.182-19.757
		C26.683,52.425,38.569,31.34,53.937,4.085H53.097z"/>
	<rect x="53.213" y="4.143" fill="#00ACC1" width="0.684" height="82.938"/>
	<path fill="#00ACC1" d="M100.025,4.059l-46.816,83.01h0.813c4.068-7.165,7.806-13.765,11.18-19.757
		c8.409-14.914,20.295-35.996,35.662-63.253H100.025z"/>
	<rect x="6.335" y="4.143" fill="#00ACC1" width="0.682" height="82.938"/>
</g>
<polygon fill="#00ACC1" points="100.01,4.07 100.109,4.164 100.109,87.074 146.756,4.088 146.438,4.088 146.438,4.07 "/>
<path fill="#00ACC1" d="M35.125,37.321c0.097-0.17,0.525-0.854,0.886-1.31c0.41-0.587,0.771-0.985,1.704-1.832
	c0.535-0.484,1.463-0.988,2.109-1.331c0.654-0.346,1.322-0.608,2.021-0.801c0.689-0.194,1.394-0.295,2.087-0.295
	c0.098,0,0.274,0,0.531,0c0.242,0,0.518,0.028,0.828,0.08c0.289,0.05,0.28,0.012,0.532,0.062c0.242,0.051,0.424,0.058,0.951,0.154
	c0.896,0.192,1.719,0.538,2.463,1.017c0.75,0.482,1.372,1.068,1.871,1.746c0.498,0.674,0.895,1.432,1.19,2.25
	c0.308,0.826,0.966,2.216,0.961,3.628l0.043,1.546l0.221-0.402L53.348,5.318L33.75,39.072L35.125,37.321z"/>
<path fill="#00ACC1" d="M144.666,49.027l-7.138,14.135l-0.956,1.77l-0.31,0.429c-0.737,1.169-1.514,2.565-2.401,3.856
	c-8.145,11.814-13.896,12.225-16.997,12.029l-3.44,5.822c2.094-0.027,4.085-0.332,5.968-0.919c1.884-0.591,3.611-1.414,5.183-2.485
	c1.568-1.057,2.98-2.336,4.234-3.831c1.247-1.495,2.377-3.15,3.396-4.961l13.108-25.845H144.666z"/>
<path fill="#00ACC1" d="M174.592,4.33c-1.883,0.348-3.667,0.999-5.35,1.934s-3.197,2.111-4.544,3.53
	c-1.346,1.407-2.504,3.038-3.466,4.893l-17.793,37.028h0.552l17.657-36.584c0.879-1.777,1.985-3.372,3.335-4.788
	c1.347-1.414,2.843-2.588,4.483-3.533c1.649-0.94,3.374-1.615,5.186-2.023c1.817-0.398,3.658-0.486,5.545-0.232l0.051-0.376
	C178.361,3.928,176.481,3.975,174.592,4.33z"/>
</svg>
